<?xml version="1.0" encoding="utf-8"?>
<!-- Generator: Adobe Illustrator 16.0.0, SVG Export Plug-In . SVG Version: 6.00 Build 0)  -->
<!DOCTYPE svg PUBLIC "-//W3C//DTD SVG 1.1//EN" "http://www.w3.org/Graphics/SVG/1.1/DTD/svg11.dtd">
<svg version="1.1" id="레이어_1" xmlns="http://www.w3.org/2000/svg" xmlns:xlink="http://www.w3.org/1999/xlink" x="0px"
	 y="0px" width="166px" height="31.999px" viewBox="0 0 166 31.999" enable-background="new 0 0 166 31.999" xml:space="preserve">
<rect x="67.997" y="0.998" fill="#C9CACA" width="4.566" height="22.174"/>
<path fill="#C9CACA" d="M55.353,16.725c0.845-0.314,1.607-0.762,2.282-1.342c0.651-0.58,1.202-1.262,1.648-2.047
	c0.447-0.785,0.744-1.637,0.887-2.555h1.704v12.391h4.564V0.998h-4.564V7.99h-1.739c-0.193-0.844-0.524-1.633-0.997-2.373
	c-0.472-0.734-1.031-1.369-1.686-1.9c-0.651-0.531-1.389-0.953-2.208-1.27c-0.822-0.314-1.679-0.471-2.572-0.471
	c-1.064,0-2.062,0.207-2.991,0.615c-0.929,0.412-1.743,0.955-2.443,1.631c-0.677,0.701-1.214,1.518-1.612,2.447
	c-0.4,0.928-0.599,1.914-0.599,2.951c0,1.064,0.198,2.055,0.599,2.971c0.398,0.92,0.936,1.717,1.612,2.391
	c0.7,0.705,1.515,1.246,2.443,1.633c0.93,0.387,1.927,0.58,2.991,0.58C53.613,17.195,54.505,17.039,55.353,16.725z M50.532,13.047
	c-0.604-0.932-0.904-2.072-0.904-3.426s0.301-2.5,0.904-3.441c0.605-0.941,1.317-1.414,2.14-1.414c0.797,0,1.497,0.473,2.1,1.414
	c0.604,0.941,0.908,2.088,0.908,3.441s-0.305,2.494-0.908,3.426c-0.603,0.928-1.303,1.395-2.1,1.395
	C51.85,14.441,51.138,13.975,50.532,13.047z"/>
<path fill="#C9CACA" d="M55.859,20.963h-4.892v6.773c0,1.016,0.313,1.813,0.941,2.393c0.629,0.582,1.438,0.869,2.43,0.869h19.059
	v-2.789H55.859V20.963z"/>
<rect x="99.156" y="5.268" fill="#C9CACA" width="4.566" height="25.73"/>
<path fill="#C9CACA" d="M93.07,8.645h-1.847c-0.171-0.918-0.479-1.777-0.926-2.574c-0.447-0.797-1.009-1.484-1.686-2.064
	c-0.675-0.58-1.438-1.039-2.282-1.377c-0.846-0.336-1.728-0.508-2.644-0.508c-1.064,0-2.062,0.213-2.989,0.635
	c-0.931,0.424-1.746,0.984-2.445,1.686c-0.7,0.725-1.251,1.563-1.649,2.516c-0.398,0.957-0.599,1.965-0.599,3.027
	c0,1.088,0.2,2.107,0.599,3.063c0.398,0.953,0.949,1.781,1.649,2.48c0.699,0.727,1.515,1.287,2.445,1.684
	c0.928,0.4,1.925,0.6,2.989,0.6c0.916,0,1.798-0.158,2.644-0.471c0.845-0.313,1.596-0.762,2.247-1.34
	c0.675-0.58,1.244-1.264,1.702-2.049c0.461-0.785,0.773-1.635,0.944-2.553h1.847v19.6h4.564V5.268H93.07V8.645z M85.879,13.625
	c-0.595,0.98-1.324,1.467-2.192,1.467c-0.919,0-1.668-0.486-2.248-1.467c-0.578-0.977-0.868-2.191-0.868-3.641
	c0-1.424,0.29-2.627,0.868-3.605c0.58-0.979,1.329-1.467,2.248-1.467c0.868,0,1.598,0.488,2.192,1.467
	c0.589,0.979,0.886,2.182,0.886,3.605C86.765,11.434,86.468,12.648,85.879,13.625z"/>
<path fill="#C9CACA" d="M114.339,17.121c1.158-0.313,2.257-0.734,3.296-1.266c1.038-0.557,1.957-1.195,2.754-1.92
	c0.797-0.727,1.34-1.512,1.63-2.357c0.291,0.824,0.834,1.602,1.631,2.338s1.716,1.369,2.754,1.902
	c1.039,0.555,2.138,0.99,3.298,1.303c1.158,0.316,2.257,0.473,3.298,0.473l2.174-2.104c-1.184-0.021-2.404-0.301-3.661-0.83
	c-1.256-0.531-2.404-1.258-3.441-2.176c-1.063-0.916-1.927-1.998-2.59-3.244c-0.666-1.242-0.997-2.613-0.997-4.111V1.105h-4.929
	v4.023c0,1.498-0.338,2.869-1.013,4.111c-0.678,1.246-1.548,2.328-2.609,3.244c-1.038,0.918-2.188,1.645-3.442,2.176
	c-1.256,0.529-2.462,0.809-3.623,0.83l2.174,2.104C112.08,17.594,113.179,17.438,114.339,17.121z"/>
<rect x="108.504" y="23.752" fill="#C9CACA" width="27.064" height="2.791"/>
<rect x="160.533" y="5.268" fill="#C9CACA" width="4.892" height="25.73"/>
<path fill="#C9CACA" d="M154.7,4.26c-0.796-0.75-1.727-1.348-2.791-1.793c-1.063-0.447-2.188-0.67-3.368-0.67
	c-1.209,0-2.338,0.223-3.391,0.67c-1.05,0.445-1.973,1.043-2.77,1.793c-0.797,0.773-1.421,1.666-1.868,2.68
	c-0.446,1.016-0.67,2.102-0.67,3.264c0,1.158,0.224,2.252,0.67,3.275c0.447,1.027,1.071,1.916,1.868,2.666
	c0.797,0.748,1.72,1.34,2.77,1.775c1.053,0.434,2.182,0.652,3.391,0.652c1.181,0,2.305-0.219,3.368-0.652
	c1.064-0.436,1.995-1.027,2.791-1.775c0.797-0.75,1.424-1.639,1.884-2.666c0.459-1.023,0.688-2.117,0.688-3.275
	c0-1.162-0.229-2.248-0.688-3.264C156.124,5.926,155.497,5.033,154.7,4.26z M151.239,14.189c-0.76,1.084-1.648,1.629-2.664,1.629
	c-1.039,0-1.937-0.533-2.699-1.596c-0.76-1.061-1.142-2.391-1.142-3.984s0.382-2.941,1.142-4.041
	c0.763-1.098,1.649-1.646,2.665-1.646c1.013,0,1.906,0.541,2.68,1.629c0.771,1.086,1.158,2.416,1.158,3.984
	C152.379,11.76,151.999,13.102,151.239,14.189z"/>
<rect x="99.156" y="0.998" fill="#0068B3" width="4.566" height="4.27"/>
<rect x="93.07" y="0.998" fill="#0068B3" width="4.564" height="4.27"/>
<rect x="160.533" y="0.998" fill="#91C422" width="4.892" height="4.27"/>
<path fill="#C9CACA" d="M5.071,30.979c-1.249-1.76-2.31-3.664-3.184-5.721c-0.877-2.055-1.313-4.412-1.313-7.078
	c0-2.221,0.389-4.426,1.171-6.607c0.783-2.184,1.889-4.248,3.325-6.191h2.907c-1.25,2.002-2.201,4.057-2.86,6.162
	c-0.654,2.113-0.983,4.322-0.983,6.637c0,2.334,0.313,4.557,0.937,6.676c0.625,2.121,1.597,4.16,2.907,6.123H5.071z"/>
<path fill="#C9CACA" d="M30.713,19.514v2.137h-8.967v8.068H17.95V21.65H8.953v-2.137H30.713z M11.23,6.693h17.206v2.164h-6.69v0.141
	c0,0.861,0.249,1.678,0.742,2.445c0.5,0.77,1.149,1.455,1.954,2.055c0.789,0.58,1.675,1.049,2.659,1.406
	c0.985,0.355,1.963,0.533,2.936,0.533l-1.798,1.631c-0.804,0-1.649-0.104-2.53-0.311c-0.883-0.207-1.705-0.496-2.475-0.871
	c-0.785-0.354-1.483-0.781-2.093-1.281c-0.609-0.496-1.043-1.023-1.311-1.586c-0.277,0.563-0.718,1.09-1.32,1.586
	c-0.6,0.5-1.29,0.928-2.079,1.281c-0.788,0.375-1.618,0.664-2.488,0.871c-0.871,0.207-1.711,0.311-2.518,0.311l-1.798-1.631
	c0.955,0,1.925-0.174,2.91-0.521c0.984-0.346,1.879-0.816,2.683-1.418c0.787-0.582,1.435-1.262,1.941-2.039
	c0.506-0.779,0.76-1.6,0.76-2.461V8.857H11.23V6.693z"/>
<path fill="#C9CACA" d="M34.812,5.381c1.251,1.779,2.313,3.699,3.187,5.762c0.873,2.064,1.313,4.42,1.313,7.064
	c0,2.24-0.396,4.447-1.187,6.621c-0.792,2.174-1.896,4.225-3.313,6.15h-2.904c1.248-1.963,2.2-3.998,2.859-6.107
	c0.655-2.109,0.981-4.332,0.981-6.664c0-2.313-0.313-4.529-0.937-6.648c-0.624-2.117-1.594-4.176-2.904-6.178H34.812z"/>
</svg>
