<?xml version="1.0" encoding="utf-8"?>
<!-- Generator: Adobe Illustrator 16.0.0, SVG Export Plug-In . SVG Version: 6.00 Build 0)  -->
<!DOCTYPE svg PUBLIC "-//W3C//DTD SVG 1.1//EN" "http://www.w3.org/Graphics/SVG/1.1/DTD/svg11.dtd">
<svg version="1.1" id="레이어_1" xmlns="http://www.w3.org/2000/svg" xmlns:xlink="http://www.w3.org/1999/xlink" x="0px"
	 y="0px" width="216.583px" height="30px" viewBox="0 0 216.583 30" enable-background="new 0 0 216.583 30" xml:space="preserve">
<path fill="#C9CACA" d="M5.481,3.235c1.932-0.784,4.688-1.196,8.269-1.196h6.179c3.79,0,6.543,0.374,8.354,1.072
	c2.845,1.11,4.245,3.251,4.245,6.461v18.281h-5.685V9.861c0-1.934-2.102-2.921-6.298-2.921h-7.615
	c-4.12-0.044-6.133,0.948-6.133,2.881v18.032H1.117V9.572C1.117,6.533,2.596,4.429,5.481,3.235z"/>
<path fill="#C9CACA" d="M62.929,24.517c-1.198,2.224-4.735,3.337-10.581,3.337H34.646v-4.898h18.526c3.208,0,4.814-0.66,4.814-1.936
	v-1.686c0-1.364-1.812-2.062-5.474-2.062h-7.863c-2.466,0-4.611-0.454-6.464-1.397c-2.346-1.15-3.54-2.843-3.54-5.062V9
	c0-2.924,1.442-4.899,4.237-5.928c1.733-0.618,4.366-0.95,7.904-0.95h10.646v4.819H46.092c-3.833,0-5.767,0.657-5.767,2.02v1.478
	c0,1.236,2.02,1.896,6.094,1.896h5.97c2.837,0,5.273,0.411,7.207,1.238c2.714,1.152,4.032,2.92,4.032,5.387c0,0.209,0,0.494,0,0.908
	c0.041,0.37,0.041,0.697,0.041,0.861C63.669,22.376,63.42,23.651,62.929,24.517z"/>
<path fill="#C9CACA" d="M76.731,27.69c-2.678,0-4.981-0.451-6.878-1.402c-2.509-1.195-3.743-2.962-3.743-5.309V8.837
	c0-2.474,1.32-4.282,3.869-5.477C71.954,2.454,74.301,2,77.103,2h12.966v4.816H77.384c-3.738,0-5.634,0.66-5.634,2.021v3.661h23.135
	v4.897H71.79v3.419c0,1.317,1.688,1.975,5.102,1.975h17.993v4.901H76.731z"/>
<rect x="90.068" y="2" fill="#91C422" width="4.816" height="4.816"/>
<rect x="57.434" y="2.122" fill="#0068B3" width="4.816" height="4.82"/>
<path fill="#9FA0A0" d="M101.153,14.923h9.721v1.932h-3.818v10.841h-2.102V16.854h-3.801V14.923z"/>
<path fill="#9FA0A0" d="M112.102,14.923h8.643v1.932h-6.541V20.2h6.054v1.824h-6.054v3.739h6.659v1.932h-8.761V14.923z"/>
<path fill="#9FA0A0" d="M130.632,18.984c-0.18-0.728-0.505-1.333-0.976-1.816s-1.144-0.725-2.018-0.725
	c-0.652,0-1.206,0.141-1.666,0.42c-0.458,0.281-0.836,0.647-1.125,1.101c-0.304,0.453-0.522,0.973-0.657,1.556
	c-0.135,0.585-0.202,1.182-0.202,1.789c0,0.62,0.067,1.223,0.202,1.808c0.135,0.584,0.354,1.104,0.657,1.557
	c0.289,0.452,0.667,0.816,1.125,1.091c0.46,0.274,1.014,0.411,1.666,0.411c0.93,0,1.65-0.324,2.16-0.976
	c0.51-0.649,0.81-1.439,0.899-2.369h2.052c-0.045,0.775-0.201,1.479-0.471,2.11c-0.269,0.633-0.622,1.175-1.06,1.629
	c-0.448,0.452-0.979,0.805-1.59,1.055c-0.611,0.251-1.275,0.376-1.991,0.376c-0.908,0-1.719-0.176-2.43-0.528
	c-0.713-0.351-1.315-0.831-1.809-1.439s-0.869-1.317-1.126-2.13c-0.258-0.811-0.387-1.675-0.387-2.594
	c0-0.905,0.129-1.764,0.387-2.575c0.257-0.812,0.633-1.521,1.126-2.129s1.096-1.092,1.809-1.448c0.711-0.358,1.521-0.537,2.43-0.537
	c0.672,0,1.303,0.098,1.891,0.295c0.589,0.197,1.113,0.485,1.573,0.868c0.448,0.369,0.813,0.825,1.102,1.368
	c0.286,0.543,0.463,1.154,0.529,1.834H130.632z"/>
<path fill="#9FA0A0" d="M134.449,14.923h2.102v5.08h5.465v-5.08h2.102v12.772h-2.102v-5.76h-5.465v5.76h-2.102V14.923z"/>
<path fill="#9FA0A0" d="M146.387,14.923h2.22l5.482,9.409h0.034v-9.409h2v12.772h-2.22l-5.463-9.391h-0.052v9.391h-2.002V14.923z"/>
<path fill="#9FA0A0" d="M165.968,15.156c0.714,0.356,1.315,0.84,1.808,1.448c0.494,0.608,0.872,1.317,1.137,2.129
	c0.263,0.812,0.395,1.67,0.395,2.575c0,0.919-0.132,1.783-0.395,2.594c-0.265,0.813-0.643,1.521-1.137,2.13
	c-0.492,0.608-1.094,1.089-1.808,1.439c-0.71,0.353-1.515,0.528-2.411,0.528c-0.908,0-1.719-0.176-2.43-0.528
	c-0.714-0.351-1.315-0.831-1.81-1.439c-0.492-0.608-0.869-1.317-1.125-2.13c-0.258-0.811-0.387-1.675-0.387-2.594
	c0-0.905,0.129-1.764,0.387-2.575c0.256-0.812,0.633-1.521,1.125-2.129c0.494-0.608,1.096-1.092,1.81-1.448
	c0.711-0.358,1.521-0.537,2.43-0.537C164.453,14.619,165.258,14.798,165.968,15.156z M161.892,16.863
	c-0.46,0.281-0.836,0.647-1.126,1.101c-0.304,0.453-0.522,0.973-0.656,1.556c-0.135,0.585-0.202,1.182-0.202,1.789
	c0,0.62,0.067,1.223,0.202,1.808c0.134,0.584,0.353,1.104,0.656,1.557c0.29,0.452,0.666,0.816,1.126,1.091
	c0.459,0.274,1.014,0.411,1.665,0.411c0.639,0,1.188-0.137,1.647-0.411c0.458-0.274,0.835-0.639,1.127-1.091
	c0.304-0.453,0.524-0.973,0.664-1.557c0.14-0.585,0.209-1.188,0.209-1.808c0-0.607-0.069-1.204-0.209-1.789
	c-0.14-0.583-0.36-1.103-0.664-1.556c-0.292-0.453-0.669-0.819-1.127-1.101c-0.46-0.279-1.009-0.42-1.647-0.42
	C162.905,16.443,162.351,16.584,161.892,16.863z"/>
<path fill="#9FA0A0" d="M171.055,14.923h2.103v10.841h6.105v1.932h-8.208V14.923z"/>
<path fill="#9FA0A0" d="M188.064,15.156c0.712,0.356,1.313,0.84,1.808,1.448c0.493,0.608,0.871,1.317,1.136,2.129
	c0.263,0.812,0.395,1.67,0.395,2.575c0,0.919-0.132,1.783-0.395,2.594c-0.265,0.813-0.643,1.521-1.136,2.13
	c-0.494,0.608-1.096,1.089-1.808,1.439c-0.712,0.353-1.517,0.528-2.413,0.528c-0.907,0-1.718-0.176-2.43-0.528
	c-0.712-0.351-1.315-0.831-1.808-1.439c-0.493-0.608-0.869-1.317-1.126-2.13c-0.259-0.811-0.388-1.675-0.388-2.594
	c0-0.905,0.129-1.764,0.388-2.575c0.257-0.812,0.633-1.521,1.126-2.129c0.492-0.608,1.096-1.092,1.808-1.448
	c0.712-0.358,1.522-0.537,2.43-0.537C186.548,14.619,187.353,14.798,188.064,15.156z M183.987,16.863
	c-0.46,0.281-0.836,0.647-1.127,1.101c-0.304,0.453-0.521,0.973-0.656,1.556c-0.136,0.585-0.203,1.182-0.203,1.789
	c0,0.62,0.067,1.223,0.203,1.808c0.135,0.584,0.353,1.104,0.656,1.557c0.291,0.452,0.667,0.816,1.127,1.091
	c0.459,0.274,1.013,0.411,1.664,0.411c0.639,0,1.188-0.137,1.647-0.411c0.46-0.274,0.835-0.639,1.127-1.091
	c0.304-0.453,0.524-0.973,0.664-1.557c0.141-0.585,0.211-1.188,0.211-1.808c0-0.607-0.07-1.204-0.211-1.789
	c-0.14-0.583-0.36-1.103-0.664-1.556c-0.292-0.453-0.667-0.819-1.127-1.101c-0.459-0.279-1.009-0.42-1.647-0.42
	C185,16.443,184.446,16.584,183.987,16.863z"/>
<path fill="#9FA0A0" d="M203.627,27.695h-1.345l-0.319-1.502c-0.571,0.68-1.135,1.15-1.689,1.413
	c-0.556,0.263-1.197,0.394-1.926,0.394c-0.908,0-1.718-0.176-2.43-0.528c-0.712-0.351-1.314-0.831-1.809-1.439
	c-0.492-0.608-0.868-1.317-1.126-2.13c-0.258-0.811-0.387-1.675-0.387-2.594c0-0.905,0.129-1.764,0.387-2.575
	s0.634-1.521,1.126-2.129c0.494-0.608,1.097-1.092,1.809-1.448c0.712-0.358,1.521-0.537,2.43-0.537c0.649,0,1.269,0.092,1.858,0.276
	c0.588,0.186,1.111,0.463,1.571,0.833c0.461,0.369,0.838,0.825,1.136,1.368s0.49,1.172,0.579,1.888h-2.051
	c-0.101-0.835-0.453-1.468-1.059-1.896c-0.605-0.43-1.284-0.645-2.035-0.645c-0.65,0-1.205,0.141-1.664,0.42
	c-0.461,0.281-0.836,0.647-1.128,1.101c-0.302,0.453-0.521,0.973-0.655,1.556c-0.134,0.585-0.202,1.182-0.202,1.789
	c0,0.62,0.068,1.22,0.202,1.799c0.134,0.578,0.354,1.094,0.655,1.548c0.292,0.464,0.667,0.834,1.128,1.108
	c0.459,0.274,1.014,0.411,1.664,0.411c1.076,0.013,1.9-0.298,2.472-0.931c0.572-0.631,0.869-1.49,0.892-2.576h-3.196V20.97h5.112
	V27.695z"/>
<path fill="#9FA0A0" d="M208.873,22.687l-4.508-7.764h2.44l3.177,5.725l3.128-5.725h2.354l-4.489,7.764v5.009h-2.103V22.687z"/>
</svg>
